<svg width="330" height="159" viewBox="0 0 330 159" fill="none" xmlns="http://www.w3.org/2000/svg">
<g opacity="0.35">
<rect x="47.8027" width="226.449" height="89.0909" rx="8" transform="rotate(2 47.8027 0)" fill="url(#paint0_linear_11869_11252)"/>
<rect x="48.3189" y="0.553547" width="225.378" height="88.0205" rx="7.46481" transform="rotate(2 48.3189 0.553547)" stroke="white" stroke-opacity="0.1" stroke-width="1.07039"/>
<g opacity="0.6">
<rect x="59.4941" y="12.5312" width="64.8485" height="64.8485" rx="4" transform="rotate(2 59.4941 12.5312)" fill="white" fill-opacity="0.16"/>
<rect x="238.283" y="20" width="20" height="8.09774" rx="2" transform="rotate(2 238.283 20)" fill="white" fill-opacity="0.2"/>
<rect x="131.789" y="43.5625" width="96.9697" height="20.6061" rx="2" transform="rotate(2 131.789 43.5625)" fill="white" fill-opacity="0.1"/>
<rect x="132.783" y="15.0938" width="96.9697" height="10.8937" rx="2" transform="rotate(2 132.783 15.0938)" fill="white" fill-opacity="0.2"/>
<rect x="132.95" y="31.6406" width="96.9697" height="10.8937" rx="2" transform="rotate(2 132.95 31.6406)" fill="white" fill-opacity="0.2"/>
<rect x="130.794" y="72.0391" width="96.9697" height="7.87879" rx="2" transform="rotate(2 130.794 72.0391)" fill="white" fill-opacity="0.16"/>
</g>
</g>
<g filter="url(#filter0_d_11869_11252)">
<g filter="url(#filter1_b_11869_11252)">
<rect x="82.3125" y="32" width="228.815" height="89.0909" rx="8" transform="rotate(6 82.3125 32)" fill="url(#paint1_linear_11869_11252)"/>
<rect x="82.6685" y="32.4396" width="228.015" height="88.2909" rx="7.6" transform="rotate(6 82.6685 32.4396)" stroke="white" stroke-opacity="0.1" stroke-width="0.8"/>
</g>
<g opacity="0.38">
<rect x="93.2109" y="45.6719" width="64.8485" height="64.8485" rx="4" transform="rotate(6 93.2109 45.6719)" fill="white" fill-opacity="0.16"/>
<rect x="275.881" y="72" width="20" height="8.42521" rx="2" transform="rotate(6 275.881 72)" fill="white" fill-opacity="0.2"/>
<rect x="163.053" y="81.3438" width="130.936" height="21.0903" rx="2" transform="rotate(6 163.053 81.3438)" fill="#474E4D"/>
<rect x="166.143" y="53.3438" width="96.9697" height="20.6061" rx="2" transform="rotate(6 166.143 53.3438)" fill="white" fill-opacity="0.2"/>
<rect x="160.022" y="110.172" width="130.936" height="7.90886" rx="2" transform="rotate(6 160.022 110.172)" fill="white" fill-opacity="0.16"/>
</g>
</g>
<g filter="url(#filter2_d_11869_11252)">
<rect x="6.90723" y="54.7344" width="227.139" height="89.0909" rx="8" transform="rotate(-5 6.90723 54.7344)" fill="url(#paint2_linear_11869_11252)"/>
<rect x="7.34057" y="55.098" width="226.339" height="88.2909" rx="7.6" transform="rotate(-5 7.34057 55.098)" stroke="white" stroke-opacity="0.1" stroke-width="0.8"/>
<g opacity="0.8">
<rect x="20.0391" y="65.7422" width="64.8485" height="64.8485" rx="4" transform="rotate(-5 20.0391 65.7422)" fill="white" fill-opacity="0.14"/>
<rect x="201.114" y="55.7422" width="20" height="9.22223" rx="2" transform="rotate(-5 201.114 55.7422)" fill="white" fill-opacity="0.08"/>
<rect x="95.5757" y="87.7344" width="96.9697" height="20.6061" rx="2" transform="rotate(-5 95.5757 87.7344)" fill="white" fill-opacity="0.1"/>
<rect x="93.0938" y="59.3594" width="96.9697" height="20.6061" rx="2" transform="rotate(-5 93.0938 59.3594)" fill="white" fill-opacity="0.14"/>
<rect x="98.0586" y="116.102" width="96.9697" height="7.87879" rx="2" transform="rotate(-5 98.0586 116.102)" fill="white" fill-opacity="0.14"/>
</g>
</g>
<defs>
<filter id="filter0_d_11869_11252" x="63.5915" y="14.5891" width="265.691" height="141.337" filterUnits="userSpaceOnUse" color-interpolation-filters="sRGB">
<feFlood flood-opacity="0" result="BackgroundImageFix"/>
<feColorMatrix in="SourceAlpha" type="matrix" values="0 0 0 0 0 0 0 0 0 0 0 0 0 0 0 0 0 0 127 0" result="hardAlpha"/>
<feOffset dx="5" dy="-3"/>
<feGaussianBlur stdDeviation="7.6"/>
<feComposite in2="hardAlpha" operator="out"/>
<feColorMatrix type="matrix" values="0 0 0 0 0.0129861 0 0 0 0 0.0916667 0 0 0 0 0.0674573 0 0 0 0.67 0"/>
<feBlend mode="normal" in2="BackgroundImageFix" result="effect1_dropShadow_11869_11252"/>
<feBlend mode="normal" in="SourceGraphic" in2="effect1_dropShadow_11869_11252" result="shape"/>
</filter>
<filter id="filter1_b_11869_11252" x="65.7915" y="24.7891" width="251.291" height="126.938" filterUnits="userSpaceOnUse" color-interpolation-filters="sRGB">
<feFlood flood-opacity="0" result="BackgroundImageFix"/>
<feGaussianBlur in="BackgroundImageFix" stdDeviation="4"/>
<feComposite in2="SourceAlpha" operator="in" result="effect1_backgroundBlur_11869_11252"/>
<feBlend mode="normal" in="SourceGraphic" in2="effect1_backgroundBlur_11869_11252" result="shape"/>
</filter>
<filter id="filter2_d_11869_11252" x="0.57373" y="25.6016" width="258.707" height="133.219" filterUnits="userSpaceOnUse" color-interpolation-filters="sRGB">
<feFlood flood-opacity="0" result="BackgroundImageFix"/>
<feColorMatrix in="SourceAlpha" type="matrix" values="0 0 0 0 0 0 0 0 0 0 0 0 0 0 0 0 0 0 127 0" result="hardAlpha"/>
<feOffset dx="6" dy="3"/>
<feGaussianBlur stdDeviation="6.5"/>
<feComposite in2="hardAlpha" operator="out"/>
<feColorMatrix type="matrix" values="0 0 0 0 0.00753472 0 0 0 0 0.0583333 0 0 0 0 0.0450289 0 0 0 0.43 0"/>
<feBlend mode="normal" in2="BackgroundImageFix" result="effect1_dropShadow_11869_11252"/>
<feBlend mode="normal" in="SourceGraphic" in2="effect1_dropShadow_11869_11252" result="shape"/>
</filter>
<linearGradient id="paint0_linear_11869_11252" x1="183.194" y1="3.98452" x2="183.801" y2="118.007" gradientUnits="userSpaceOnUse">
<stop stop-color="#1E2526"/>
<stop offset="0.825697" stop-color="#444847"/>
</linearGradient>
<linearGradient id="paint1_linear_11869_11252" x1="219.119" y1="35.9845" x2="219.72" y2="150.007" gradientUnits="userSpaceOnUse">
<stop stop-color="#1E2526" stop-opacity="0.5"/>
<stop offset="0.825697" stop-color="#444847" stop-opacity="0.5"/>
</linearGradient>
<linearGradient id="paint2_linear_11869_11252" x1="142.712" y1="58.7189" x2="143.317" y2="172.741" gradientUnits="userSpaceOnUse">
<stop stop-color="#1E2526"/>
<stop offset="0.825697" stop-color="#444847"/>
</linearGradient>
</defs>
</svg>
