<?xml version="1.0" standalone="no"?><!DOCTYPE svg PUBLIC "-//W3C//DTD SVG 1.1//EN" "http://www.w3.org/Graphics/SVG/1.1/DTD/svg11.dtd"><svg t="1747384908321" class="icon" viewBox="0 0 1024 1024" version="1.1" xmlns="http://www.w3.org/2000/svg" p-id="6027" xmlns:xlink="http://www.w3.org/1999/xlink" width="200" height="200"><path d="M774.72 374.656c0 135.36 97.6 448-37.76 448-135.36 0-452.224-312.64-452.224-448a244.992 244.992 0 1 1 489.984 0z" fill="#FFFFFF" p-id="6028"></path><path d="M512.256 51.392C255.36 51.392 46.976 257.664 46.976 512s208.384 460.608 465.28 460.608c256.896 0 465.28-206.272 465.28-460.608S769.088 51.392 512.192 51.392z m246.528 715.2a36.992 36.992 0 0 1-52.096 0L517.12 578.816a145.792 145.792 0 0 1-43.264-103.616V220.992a37.44 37.44 0 0 1 74.88 0V475.52c0 19.52 7.808 38.208 21.632 51.84l188.48 186.624a36.992 36.992 0 0 1 0 52.608z" fill="#808080" p-id="6029"></path></svg>